<?xml version="1.0" encoding="UTF-8"?>
<svg id="Calque_1" data-name="Calque 1" xmlns="http://www.w3.org/2000/svg" viewBox="0 0 521.78 164.84">
  <defs>
    <style>
      .cls-1 {
        fill: #000;
      }

      .cls-1, .cls-2 {
        stroke-width: 0px;
      }

      .cls-3 {
        fill: none;
        stroke: #fff;
        stroke-miterlimit: 10;
        stroke-width: .34px;
      }

      .cls-2 {
        fill: #fff;
      }
    </style>
  </defs>
  <path class="cls-2" d="M28.21,43.37l.46-12.13,30.21,48.8h-17.41l-21.66-36.61,7.12.92-12.39,16.64,1.38-9.98v29.03H0V4.51h15.92v39.22l-2.97-1.64L40.55,4.51h16.79l-29.14,38.86Z"/>
  <path class="cls-2" d="M83.77,81.16c-3.96,0-7.49-.63-10.57-1.9-3.09-1.26-5.51-3.09-7.25-5.48-1.74-2.39-2.61-5.29-2.61-8.7,0-3.86,1.06-7,3.18-9.42,2.12-2.43,4.92-4.28,8.42-5.56,3.5-1.28,7.3-2.12,11.39-2.53,5.97-.58,10.1-1.11,12.37-1.59,2.27-.48,3.41-1.32,3.41-2.51v-.1c0-2.01-.97-3.6-2.89-4.76-1.93-1.16-4.62-1.74-8.07-1.74-3.65,0-6.44.66-8.37,1.97-1.93,1.32-2.9,3.32-2.9,6.02h-15.62c0-4.37,1.19-8.06,3.56-11.06,2.37-3.01,5.59-5.28,9.65-6.84,4.06-1.55,8.65-2.33,13.77-2.33,4.78,0,9.2.73,13.26,2.18,4.06,1.45,7.33,3.63,9.81,6.53,2.48,2.9,3.71,6.59,3.71,11.06v23.5c0,1.4.04,2.74.13,4.02.09,1.28.28,2.45.59,3.51.34,1.2.77,2.19,1.28,2.97.51.79.94,1.33,1.28,1.64h-15.62c-.24-.24-.61-.73-1.1-1.49-.5-.75-.91-1.62-1.26-2.61-.41-1.2-.71-2.4-.9-3.61s-.28-2.64-.28-4.28l3.28,2.25c-.96,2.25-2.5,4.19-4.64,5.81-2.13,1.62-4.66,2.87-7.58,3.74-2.92.87-6.07,1.31-9.45,1.31ZM88.02,69.28c2.49,0,4.82-.45,6.99-1.36,2.17-.9,3.94-2.33,5.3-4.28,1.37-1.95,2.05-4.49,2.05-7.63v-5.48l3.94,3.84c-2.25.82-4.86,1.49-7.81,2.02-2.95.53-5.9.95-8.83,1.26-3.48.34-6.09.93-7.81,1.77-1.73.84-2.59,2.25-2.59,4.22s.73,3.29,2.2,4.23c1.47.94,3.65,1.41,6.56,1.41Z"/>
  <path class="cls-2" d="M146.09,0v80.03h-15.67V0h15.67Z"/>
  <path class="cls-2" d="M164.82,57.61v-10.5h36.05l-1.54,2.66v-1.54c0-1.95-.46-3.82-1.38-5.61-.92-1.79-2.35-3.26-4.28-4.4-1.93-1.14-4.4-1.72-7.4-1.72s-5.59.64-7.76,1.92c-2.17,1.28-3.83,3.12-4.97,5.51-1.15,2.39-1.72,5.27-1.72,8.65s.56,6.46,1.67,8.93c1.11,2.48,2.76,4.38,4.97,5.71s4.94,2,8.22,2c2.12,0,3.94-.2,5.48-.59,1.54-.39,2.79-.9,3.76-1.51s1.72-1.3,2.23-2.05c.51-.75.82-1.49.92-2.2h15.67c-.21,2.29-.99,4.53-2.36,6.73-1.37,2.2-3.26,4.18-5.68,5.94-2.43,1.76-5.37,3.15-8.83,4.17-3.47,1.03-7.42,1.54-11.85,1.54-6.01,0-11.25-1.21-15.72-3.61-4.47-2.41-7.94-5.74-10.4-9.99-2.46-4.25-3.69-9.16-3.69-14.72s1.25-10.57,3.76-14.82c2.51-4.25,6.01-7.56,10.5-9.93,4.49-2.37,9.69-3.56,15.59-3.56s11.27,1.2,15.67,3.61c4.41,2.41,7.8,5.77,10.19,10.09,2.39,4.32,3.58,9.35,3.58,15.08,0,.86-.02,1.68-.05,2.46-.04.79-.09,1.37-.16,1.74h-50.49ZM177.52,18.43l12.19-13.93h12.14l-13.88,13.93h-10.45Z"/>
  <path class="cls-2" d="M232.62,16.79c-2.46,0-4.6-.65-6.43-1.95-1.83-1.3-2.74-3.12-2.74-5.48s.91-4.23,2.74-5.53c1.83-1.3,3.97-1.95,6.43-1.95s4.65.65,6.48,1.95c1.83,1.3,2.74,3.14,2.74,5.53s-.91,4.22-2.74,5.5c-1.83,1.28-3.99,1.92-6.48,1.92ZM224.78,80.03V25.65h15.72v54.38h-15.72Z"/>
  <path class="cls-2" d="M274.96,81.26c-4.54,0-8.72-1.09-12.54-3.25-3.83-2.17-6.9-5.39-9.22-9.65-2.32-4.27-3.48-9.53-3.48-15.77s1.19-11.04,3.56-15.21c2.37-4.16,5.48-7.33,9.32-9.5,3.84-2.17,7.96-3.25,12.37-3.25s8.24,1.09,11.8,3.28c3.57,2.19,6.43,5.17,8.58,8.94,2.15,3.77,3.23,8.12,3.23,13.03v.97l-6.86.1v-.67c0-2.56-.62-4.76-1.84-6.61-1.23-1.84-2.82-3.27-4.76-4.28-1.95-1.01-3.98-1.51-6.09-1.51-3.52,0-6.55,1.17-9.11,3.51-2.56,2.34-3.84,6.07-3.84,11.19s1.29,8.88,3.87,11.29c2.58,2.41,5.61,3.61,9.09,3.61,2.19,0,4.25-.52,6.2-1.56,1.95-1.04,3.52-2.52,4.71-4.43,1.2-1.91,1.79-4.16,1.79-6.76l6.86.36c0,4.88-1.05,9.29-3.15,13.24-2.1,3.94-4.93,7.09-8.5,9.42-3.57,2.34-7.55,3.51-11.96,3.51ZM291.71,80.03V0h15.92v80.03h-15.92Z"/>
  <path class="cls-2" d="M361.57,78.05c.33-.14.65-.3.96-.47.73-.39,1.42-.8,2.08-1.28-1.14.73-2.18,1.29-3.04,1.75ZM329.19,76.13c.73.54,1.48,1.01,2.3,1.45.6.33,1.21.63,1.85.88-1.04-.5-2.54-1.28-4.15-2.33ZM353.81,73.05c-.08-.08-.16-.14-.24-.22-2.18-1.91-3.42-3.3-4.89-4.31-.54.06-1.1.09-1.67.09-.17,0-.36,0-.54-.02-1.8,1.01-3.86,2.38-5.98,4.23-.08.06-.16.13-.22.21h-.02c-2.41,2.15-4.16,4.29-5.43,6.06v.02c3.66,1.4,7.71,2.1,12.18,2.1s8.52-.69,12.18-2.11c.02.02.02,0,.03,0-.03-.06-.08-.11-.11-.17-.03-.08-.08-.16-.11-.24l-5.19-5.63ZM373,38.17c-2.51-4.24-6.01-7.55-10.47-9.94-4.48-2.37-9.65-3.55-15.52-3.55s-11.04,1.18-15.52,3.55c-4.46,2.38-7.97,5.69-10.47,9.94-2.51,4.26-3.75,9.15-3.75,14.68s1.25,10.46,3.75,14.72c.49.82,1.01,1.59,1.59,2.35,0-.02.02-.03.03-.05,2.3-3.11,5.27-5.61,8.85-7.52,1.09-.57,2.22-1.09,3.39-1.51-1.03-2.29-1.55-4.95-1.55-7.98,0-3.19.57-5.93,1.69-8.28,1.14-2.33,2.73-4.13,4.79-5.39,2.07-1.26,4.46-1.89,7.19-1.89s5.17.63,7.22,1.89c2.03,1.26,3.63,3.06,4.76,5.39,1.12,2.35,1.69,5.09,1.69,8.28s-.52,5.69-1.55,7.98c-.03.08-.06.16-.09.24.05-.08.09-.14.14-.2,1.15.41,2.27.91,3.34,1.48,3.6,1.92,6.58,4.45,8.88,7.59.03-.02.05-.05.05-.06.57-.74,1.07-1.5,1.55-2.3,2.51-4.26,3.75-9.16,3.75-14.72s-1.25-10.42-3.75-14.68Z"/>
  <path class="cls-2" d="M221.61,143.69c-3.24,0-6.37-.38-9.37-1.13-3-.75-5.69-1.86-8.06-3.33-2.37-1.47-4.25-3.3-5.63-5.51-1.38-2.2-2.07-4.77-2.07-7.71v-.92h15.77v.72c0,1.98.88,3.43,2.64,4.35,1.76.92,4.14,1.38,7.14,1.38,1.57,0,3.08-.16,4.53-.49,1.45-.32,2.64-.85,3.58-1.59.94-.73,1.41-1.66,1.41-2.79,0-1.81-1-3.09-3-3.84-2-.75-5.2-1.5-9.6-2.25-2.49-.41-5.02-.99-7.58-1.74-2.56-.75-4.92-1.75-7.07-3-2.15-1.25-3.88-2.83-5.17-4.76-1.3-1.93-1.95-4.28-1.95-7.04,0-3.69,1.12-6.79,3.36-9.32,2.24-2.53,5.21-4.44,8.93-5.74,3.72-1.3,7.82-1.95,12.29-1.95s8.24.71,11.93,2.13c3.69,1.42,6.67,3.45,8.96,6.09,2.29,2.65,3.43,5.83,3.43,9.55v.72h-15.62v-.62c0-1.37-.44-2.48-1.31-3.33-.87-.85-1.97-1.49-3.3-1.92-1.33-.43-2.71-.64-4.15-.64-1.3,0-2.64.15-4.02.44-1.38.29-2.55.77-3.51,1.43-.96.67-1.44,1.6-1.44,2.79s.51,2.11,1.54,2.84c1.02.74,2.46,1.33,4.3,1.79s3.98.9,6.4,1.31c2.29.38,4.7.9,7.25,1.56,2.54.67,4.93,1.61,7.17,2.82,2.24,1.21,4.05,2.8,5.43,4.76,1.38,1.96,2.07,4.45,2.07,7.45s-.72,5.77-2.15,7.99c-1.43,2.22-3.37,4.02-5.81,5.4-2.44,1.38-5.16,2.41-8.14,3.07-2.99.67-6.05,1-9.19,1Z"/>
  <path class="cls-2" d="M284.18,143.69c-5.98,0-11.21-1.21-15.72-3.61-4.51-2.41-8-5.76-10.47-10.06-2.48-4.3-3.71-9.27-3.71-14.9s1.24-10.64,3.71-14.82c2.48-4.18,5.97-7.43,10.47-9.76,4.51-2.32,9.74-3.48,15.72-3.48,4.47,0,8.43.66,11.88,1.97,3.45,1.32,6.33,3.05,8.65,5.2,2.32,2.15,4.08,4.51,5.28,7.07,1.2,2.56,1.79,5.1,1.79,7.63v.41h-15.72c0-.2,0-.4-.03-.59s-.06-.39-.13-.59c-.28-1.43-.87-2.78-1.79-4.05-.92-1.26-2.21-2.3-3.87-3.1-1.66-.8-3.71-1.2-6.17-1.2-2.63,0-4.98.58-7.04,1.74-2.07,1.16-3.7,2.88-4.89,5.15-1.2,2.27-1.79,5.08-1.79,8.42s.6,6.1,1.79,8.47,2.83,4.19,4.89,5.45c2.07,1.27,4.41,1.9,7.04,1.9s4.9-.42,6.61-1.26c1.71-.84,2.99-1.96,3.84-3.38.85-1.42,1.37-2.98,1.54-4.69h15.72c0,2.53-.59,5.09-1.77,7.71-1.18,2.61-2.92,4.99-5.22,7.14-2.31,2.15-5.18,3.89-8.63,5.22-3.45,1.33-7.44,2-11.98,2Z"/>
  <path class="cls-2" d="M353.57,72.83c-2.18-1.91-3.42-3.3-4.89-4.31-.3-.22-.62-.43-.95-.6-.39.2-.82.44-1.26.68-1.8,1.01-3.86,2.38-5.98,4.23-.08.06-.16.13-.22.21,1.96-1.1,4.21-1.64,6.73-1.64s4.84.55,6.8,1.66c-.08-.08-.16-.14-.24-.22ZM347.96,67.75c1.2-.06,2.32-.35,4.73-1.45,3.39-1.55,5.38-3.91,6.34-5.22t.02-.02c.05-.08.09-.14.14-.2-.02-.02-.03-.03-.05-.03-3.64-1.36-7.7-2.03-12.13-2.03s-8.49.68-12.13,2.03c.85,1.25,2.89,3.82,6.5,5.47,2.63,1.21,5.03,1.44,6.51,1.45M353.57,72.83c-2.18-1.91-3.42-3.3-4.89-4.31-.3-.22-.62-.43-.95-.6-.39.2-.82.44-1.26.68-1.8,1.01-3.86,2.38-5.98,4.23-.08.06-.16.13-.22.21,1.96-1.1,4.21-1.64,6.73-1.64s4.84.55,6.8,1.66c-.08-.08-.16-.14-.24-.22ZM351.57,109.85c-1.12-.36-2.19-.66-3.19-.88-1.5.16-3.42.5-5.54,1.36-2.73,1.1-4.68,2.57-5.87,3.63,3.08.91,6.42,1.37,10.03,1.37,4.29,0,8.2-.65,11.75-1.96-1.74-1.14-4.15-2.49-7.19-3.52ZM373,72.28c-.47-.8-.98-1.56-1.55-2.3v-.02s-.02-.02-.05-.03c-1.23,1.67-2.65,3.19-4.26,4.53-.25.22-.5.41-.74.58-.22.17-.44.33-.66.49-.38.27-.77.52-1.14.77-1.14.73-2.18,1.29-3.04,1.75-.38.19-.73.36-1.03.49-.09.05-.2.09-.28.13-.08.03-.16.08-.24.11-.06.03-.13.06-.19.08-.06.03-.13.06-.19.08-.21.09-.35.14-.39.16h-.03c-.03-.06-.08-.11-.11-.17.03.05.05.11.08.17.99,2.24,1.5,4.87,1.5,7.87,0,3.17-.57,5.95-1.69,8.31-.28.58-.58,1.15-.91,1.67-1.04,1.58-2.32,2.85-3.85,3.83-2.05,1.29-4.46,1.94-7.22,1.94s-5.13-.65-7.19-1.94c-1.36-.85-2.52-1.94-3.47-3.26-.49-.68-.93-1.42-1.33-2.24-1.12-2.37-1.69-5.14-1.69-8.31,0-3,.5-5.61,1.5-7.85v-.02h-.02c-.06-.03-.13-.05-.19-.06-.08-.03-.19-.08-.33-.14-.06-.03-.14-.06-.22-.09-.08-.03-.16-.08-.25-.11-.14-.06-.32-.14-.49-.22-1.04-.5-2.54-1.28-4.15-2.33-.27-.19-.54-.38-.8-.57-.17-.11-.33-.24-.5-.38-.27-.19-.52-.38-.77-.58-.36-.28-.73-.58-1.09-.9-.27-.22-.52-.47-.79-.73s-.52-.5-.77-.77l-.08-.08c-.25-.28-.5-.57-.76-.87-.33-.38-.63-.79-.93-1.2-.03-.05-.06-.08-.08-.13h-.02c-.57.74-1.09,1.53-1.58,2.35-2.51,4.26-3.75,9.15-3.75,14.68s1.25,10.46,3.75,14.72c.93,1.58,2,3.03,3.2,4.35,1.75-1.94,4.23-4.23,7.59-6.25,1.5-.91,2.93-1.61,4.26-2.18.03-.02.06-.02.09-.03.05-.03.09-.05.16-.05,1.29,1.83,3.11,4.05,5.65,6.28,1.67,1.45,3.33,2.62,4.84,3.55,1.7-.99,3.64-2.3,5.63-4.02,2.54-2.22,4.38-4.46,5.68-6.29,1.44.66,2.93,1.4,4.48,2.27,3.19,1.75,5.93,3.61,8.25,5.39l.05.05c.77-.96,1.47-1.99,2.11-3.08,2.51-4.26,3.75-9.16,3.75-14.72s-1.25-10.42-3.75-14.68ZM353.57,72.83c-2.18-1.91-3.4-3.32-4.86-4.33-.3-.22-.67-.57-.97-.75-.39.2-.93.6-1.29.82-1.75,1.1-3.84,2.41-5.95,4.26-.08.06-.16.13-.22.21,1.96-1.1,4.21-1.64,6.73-1.64s4.84.55,6.8,1.66c-.08-.08-.16-.14-.24-.22Z"/>
  <path class="cls-1" d="M360.26,78.67c-.65.3-1.03.44-1.03.44,0,0,0-.02-.02-.02.35-.14.69-.27,1.04-.43Z"/>
  <path class="cls-2" d="M385.98,164.84v-76.76h15.92v76.76h-15.92ZM418.7,143.69c-4.3,0-8.24-1.15-11.83-3.46-3.59-2.3-6.45-5.41-8.6-9.32-2.15-3.91-3.23-8.3-3.23-13.19v-.82l6.86-.15v.62c0,2.53.62,4.74,1.85,6.63,1.23,1.9,2.82,3.35,4.76,4.38,1.95,1.03,3.98,1.54,6.09,1.54,3.48,0,6.51-1.2,9.09-3.61,2.58-2.41,3.87-6.17,3.87-11.29s-1.28-8.85-3.84-11.19c-2.56-2.34-5.6-3.51-9.12-3.51-2.12,0-4.15.51-6.09,1.51-1.95,1.01-3.53,2.43-4.76,4.28-1.23,1.84-1.85,4.05-1.85,6.61l-6.86-.41c0-4.92,1.08-9.26,3.23-13.03,2.15-3.77,5.02-6.75,8.6-8.94,3.59-2.18,7.53-3.28,11.83-3.28s8.52,1.08,12.34,3.25c3.82,2.17,6.92,5.34,9.3,9.5,2.37,4.17,3.56,9.24,3.56,15.21s-1.16,11.5-3.48,15.77c-2.32,4.27-5.39,7.48-9.22,9.65-3.82,2.17-7.99,3.25-12.49,3.25Z"/>
  <path class="cls-2" d="M459.86,120.03v-10.5h36.05l-1.54,2.66v-1.54c0-1.95-.46-3.82-1.38-5.61-.92-1.79-2.35-3.26-4.28-4.4-1.93-1.14-4.4-1.72-7.4-1.72s-5.59.64-7.76,1.92c-2.17,1.28-3.83,3.12-4.97,5.51-1.15,2.39-1.72,5.27-1.72,8.65s.56,6.46,1.67,8.93c1.11,2.48,2.76,4.38,4.97,5.71,2.2,1.33,4.94,2,8.22,2,2.12,0,3.94-.2,5.48-.59,1.54-.39,2.79-.9,3.76-1.51s1.72-1.3,2.23-2.05c.51-.75.82-1.49.92-2.2h15.67c-.21,2.29-.99,4.53-2.36,6.73-1.37,2.2-3.26,4.18-5.68,5.94-2.43,1.76-5.37,3.15-8.83,4.17-3.47,1.03-7.42,1.54-11.85,1.54-6.01,0-11.25-1.21-15.72-3.61-4.47-2.41-7.94-5.74-10.4-9.99-2.46-4.25-3.69-9.16-3.69-14.72s1.25-10.57,3.76-14.82c2.51-4.25,6.01-7.56,10.5-9.93,4.49-2.37,9.69-3.56,15.59-3.56s11.27,1.2,15.67,3.61c4.41,2.41,7.8,5.77,10.19,10.09,2.39,4.32,3.58,9.35,3.58,15.08,0,.86-.02,1.68-.05,2.46-.04.79-.09,1.37-.16,1.74h-50.49Z"/>
  <path class="cls-1" d="M322.61,69.93s.05.08.08.13c-.03-.03-.06-.08-.09-.13h.02Z"/>
  <path class="cls-1" d="M334.82,79.09h.02v.02l-.02-.02Z"/>
  <path class="cls-2" d="M332.58,99.16c-3.34,1.78-6.14,4.07-8.36,6.88,1.75-1.94,4.23-4.23,7.59-6.25,1.5-.91,2.93-1.61,4.26-2.18-1.21.44-2.37.96-3.49,1.55ZM363.6,99.16c-1.74-.91-3.58-1.66-5.52-2.21-3.06-.9-6.39-1.34-9.98-1.34-4.31,0-8.22.63-11.75,1.91-.02-.02-.03.02-.03.02,1.29,1.83,3.11,4.05,5.65,6.28,1.67,1.45,3.97,3.47,5.48,4.4,1.12-1,3.4-3.4,4.99-4.87,2.48-2.29,4.38-4.46,5.68-6.29,1.44.66,2.93,1.4,4.48,2.27,3.19,1.75,5.93,3.61,8.25,5.39-2.03-2.21-4.43-4.07-7.24-5.55ZM374.07,109.09c-.93-1.58-1.99-3.01-3.19-4.34-2.26,2.82-5.03,5.13-8.36,6.94-1.2.65-2.45,1.2-3.74,1.66t.02.02c.47.65.9,1.36,1.26,2.13,1.14,2.33,1.7,5.09,1.7,8.28s-.57,5.95-1.7,8.31c-1.12,2.38-2.71,4.21-4.76,5.5-2.03,1.29-4.45,1.94-7.21,1.94s-5.14-.65-7.19-1.94c-2.07-1.29-3.67-3.12-4.79-5.5-1.12-2.37-1.69-5.14-1.69-8.31s.57-5.95,1.69-8.28c.27-.54.55-1.06.87-1.55-.05-.02-.09-.03-.16-.05-1.88-.57-3.66-1.31-5.33-2.21-2.81-1.53-5.22-3.41-7.27-5.65-.02.02-.03.02-.05.03v.02c-.76.95-1.44,1.94-2.07,3-2.51,4.26-3.77,9.15-3.77,14.68s1.26,10.46,3.77,14.72c2.51,4.24,5.99,7.59,10.47,10.01,4.46,2.41,9.64,3.63,15.52,3.63s11.04-1.21,15.5-3.63c4.48-2.43,7.96-5.77,10.47-10.01,2.51-4.26,3.77-9.16,3.77-14.72s-1.26-10.43-3.77-14.68Z"/>
  <path class="cls-2" d="M358.79,113.35s-.02.03-.02.03c0,0-.02,0-.02-.02-1.74-1.14-4.15-2.49-7.19-3.52-1.12-.36-2.19-.66-3.19-.88.44-.05.84-.08,1.18-.09-.41-.2-.84-.43-1.28-.66,2.68.03,5.03.66,7.02,1.89,1.37.84,2.54,1.92,3.49,3.25Z"/>
  <path class="cls-1" d="M336.32,97.53c-.06,0-.11.02-.16.05.05-.03.09-.05.14-.06,0,0,0,.02.02.02Z"/>
  <path class="cls-2" d="M348.38,108.97c-1.5.16-3.42.5-5.54,1.36-2.73,1.1-4.68,2.57-5.87,3.63,1.03-1.59,2.35-2.89,3.93-3.85,1.33-.82,2.81-1.37,4.42-1.66.91.11,1.96.28,3.06.52Z"/>
  <path class="cls-2" d="M349.56,108.87c-.35.02-.74.05-1.18.09-1.1-.24-2.14-.41-3.06-.52.88-.16,1.81-.24,2.78-.24h.19c.44.24.87.46,1.28.66Z"/>
  <g>
    <circle class="cls-3" cx="516.08" cy="93.61" r="5.53"/>
    <g>
      <path class="cls-2" d="M515.67,92.97h-2.07v-.43h2.07v.43ZM514.88,94.68h-.48v-2.14h.48v2.14Z"/>
      <path class="cls-2" d="M516.33,94.68h-.48v-2.14h.65l.5,1.06.2.5h.04l.2-.5.49-1.06h.65v2.14h-.48v-1.09l.02-.34h-.04l-.13.34-.45.96h-.58l-.45-.96-.12-.34h-.04l.02.34v1.09Z"/>
    </g>
  </g>
</svg>