<svg xmlns="http://www.w3.org/2000/svg" id="Calque_1" data-name="Calque 1" version="1.1" viewBox="264.31 428 538.84 170.23">
  <defs>
    <style>
      .cls-1 {
        fill: #000;
      }

      .cls-1, .cls-2 {
        stroke-width: 0px;
      }

      .cls-3 {
        fill: none;
        stroke: #fff;
        stroke-miterlimit: 10;
        stroke-width: .34px;
      }

      .cls-2 {
        fill: #fff;
      }
    </style>
  </defs>
  <path class="cls-2" d="M293.44,472.79l.48-12.53,31.2,50.39h-17.98l-22.37-37.81,7.35.95-12.8,17.19,1.43-10.31v29.98h-16.44v-78h16.44v40.51l-3.07-1.69,28.5-38.81h17.34l-30.09,40.13Z"/>
  <path class="cls-2" d="M350.82,511.81c-4.09,0-7.73-.65-10.92-1.96-3.19-1.3-5.69-3.19-7.48-5.66-1.8-2.47-2.7-5.46-2.7-8.99,0-3.98,1.09-7.23,3.28-9.73,2.19-2.5,5.08-4.42,8.7-5.74,3.61-1.32,7.53-2.19,11.77-2.62,6.17-.6,10.43-1.15,12.77-1.64,2.34-.49,3.52-1.36,3.52-2.59v-.11c0-2.08-1-3.72-2.99-4.92-1.99-1.2-4.77-1.8-8.33-1.8-3.77,0-6.65.68-8.64,2.04-1.99,1.36-2.99,3.43-2.99,6.21h-16.13c0-4.51,1.22-8.32,3.67-11.42,2.45-3.1,5.77-5.46,9.97-7.06,4.19-1.6,8.94-2.4,14.22-2.4,4.93,0,9.5.75,13.69,2.25,4.2,1.5,7.57,3.75,10.13,6.74,2.56,3,3.83,6.8,3.83,11.42v24.27c0,1.45.04,2.83.13,4.15s.29,2.53.61,3.62c.35,1.23.79,2.26,1.32,3.07.53.81.97,1.37,1.32,1.69h-16.13c-.25-.25-.62-.76-1.14-1.53-.51-.77-.94-1.67-1.3-2.7-.42-1.23-.73-2.48-.92-3.73s-.29-2.72-.29-4.42l3.39,2.33c-.99,2.33-2.58,4.33-4.79,6-2.2,1.68-4.81,2.96-7.83,3.86-3.01.9-6.26,1.35-9.75,1.35ZM355.2,499.54c2.57,0,4.98-.47,7.22-1.4,2.24-.93,4.06-2.4,5.47-4.42,1.41-2.01,2.11-4.63,2.11-7.88v-5.66l4.07,3.97c-2.33.84-5.01,1.54-8.06,2.09-3.05.55-6.09.98-9.12,1.3-3.6.35-6.28.96-8.06,1.83-1.78.86-2.67,2.32-2.67,4.36s.76,3.4,2.27,4.36c1.52.97,3.77,1.45,6.77,1.45Z"/>
  <path class="cls-2" d="M415.17,428v82.65h-16.18v-82.65h16.18Z"/>
  <path class="cls-2" d="M434.52,487.49v-10.84h37.23l-1.59,2.75v-1.59c0-2.01-.48-3.94-1.43-5.79-.95-1.85-2.42-3.36-4.42-4.55-1.99-1.18-4.54-1.77-7.64-1.77s-5.77.66-8.01,1.98c-2.24,1.32-3.95,3.22-5.13,5.69-1.18,2.47-1.77,5.45-1.77,8.94s.57,6.67,1.72,9.23c1.14,2.56,2.85,4.52,5.13,5.9,2.27,1.37,5.1,2.06,8.49,2.06,2.19,0,4.07-.2,5.66-.61,1.59-.41,2.88-.92,3.89-1.56s1.77-1.34,2.3-2.11c.53-.77.84-1.53.95-2.27h16.18c-.21,2.36-1.02,4.68-2.43,6.95-1.41,2.27-3.37,4.32-5.87,6.13-2.5,1.82-5.54,3.25-9.12,4.31-3.58,1.06-7.66,1.59-12.24,1.59-6.2,0-11.62-1.24-16.23-3.73-4.62-2.49-8.2-5.92-10.74-10.31s-3.81-9.46-3.81-15.2,1.29-10.92,3.89-15.31c2.59-4.39,6.2-7.81,10.84-10.26s10-3.67,16.1-3.67,11.63,1.24,16.18,3.73c4.55,2.49,8.06,5.96,10.52,10.42,2.47,4.46,3.7,9.65,3.7,15.57,0,.88-.02,1.73-.05,2.54-.04.81-.09,1.41-.16,1.8h-52.14ZM447.64,447.04l12.58-14.38h12.53l-14.33,14.38h-10.79Z"/>
  <path class="cls-2" d="M504.53,445.34c-2.54,0-4.75-.67-6.64-2.01-1.89-1.34-2.83-3.22-2.83-5.66s.94-4.37,2.83-5.71c1.88-1.34,4.1-2.01,6.64-2.01s4.8.67,6.69,2.01c1.89,1.34,2.83,3.24,2.83,5.71s-.94,4.36-2.83,5.68c-1.88,1.32-4.12,1.98-6.69,1.98ZM496.44,510.65v-56.16h16.24v56.16h-16.24Z"/>
  <path class="cls-2" d="M548.26,511.92c-4.69,0-9.01-1.12-12.95-3.36-3.95-2.24-7.12-5.56-9.52-9.97-2.4-4.41-3.59-9.84-3.59-16.29s1.22-11.4,3.67-15.71c2.45-4.3,5.66-7.57,9.62-9.81,3.97-2.24,8.22-3.36,12.77-3.36s8.51,1.13,12.19,3.38c3.68,2.26,6.64,5.33,8.86,9.23,2.22,3.9,3.33,8.38,3.33,13.46v1l-7.09.11v-.69c0-2.64-.64-4.92-1.9-6.82-1.27-1.9-2.91-3.37-4.92-4.42-2.01-1.04-4.11-1.56-6.29-1.56-3.63,0-6.77,1.21-9.41,3.62-2.64,2.41-3.97,6.27-3.97,11.55s1.33,9.17,3.99,11.66c2.66,2.48,5.79,3.73,9.39,3.73,2.26,0,4.39-.54,6.4-1.61,2.01-1.08,3.63-2.6,4.86-4.58,1.23-1.97,1.85-4.3,1.85-6.98l7.09.37c0,5.04-1.08,9.6-3.25,13.67s-5.09,7.32-8.78,9.73-7.8,3.62-12.35,3.62ZM565.55,510.65v-82.65h16.44v82.65h-16.44Z"/>
  <path class="cls-2" d="M622.66,511.87c-6.06,0-11.4-1.25-16.02-3.75-4.62-2.5-8.22-5.95-10.81-10.34-2.59-4.39-3.89-9.46-3.89-15.2s1.29-10.76,3.89-15.15c2.59-4.39,6.19-7.81,10.81-10.26,4.62-2.45,9.96-3.67,16.02-3.67s11.4,1.23,16.02,3.67c4.62,2.45,8.22,5.87,10.81,10.26,2.59,4.39,3.89,9.44,3.89,15.15s-1.29,10.81-3.89,15.2c-2.59,4.39-6.2,7.84-10.81,10.34-4.62,2.5-9.96,3.75-16.02,3.75ZM622.66,498.86c2.86,0,5.34-.67,7.46-2.01s3.75-3.24,4.92-5.69c1.16-2.45,1.75-5.31,1.75-8.59s-.58-6.12-1.75-8.54c-1.16-2.41-2.8-4.28-4.92-5.58s-4.6-1.96-7.46-1.96-5.3.65-7.43,1.96-3.78,3.17-4.94,5.58c-1.16,2.41-1.75,5.26-1.75,8.54s.58,6.14,1.75,8.59c1.16,2.45,2.81,4.35,4.94,5.69s4.61,2.01,7.43,2.01Z"/>
  <path class="cls-2" d="M493.16,576.39c-3.35,0-6.57-.39-9.68-1.16-3.1-.77-5.88-1.92-8.33-3.44-2.45-1.52-4.39-3.41-5.82-5.69-1.43-2.27-2.14-4.93-2.14-7.96v-.95h16.28v.74c0,2.04.91,3.54,2.72,4.5,1.82.95,4.27,1.43,7.38,1.43,1.62,0,3.18-.17,4.68-.5,1.5-.33,2.73-.88,3.7-1.64.97-.76,1.45-1.72,1.45-2.88,0-1.87-1.03-3.19-3.09-3.97-2.06-.77-5.37-1.55-9.91-2.33-2.57-.42-5.18-1.02-7.83-1.8-2.64-.77-5.08-1.81-7.3-3.09-2.22-1.29-4-2.93-5.34-4.92-1.34-1.99-2.01-4.42-2.01-7.27,0-3.81,1.15-7.02,3.47-9.62,2.31-2.61,5.38-4.58,9.23-5.92,3.84-1.34,8.07-2.01,12.69-2.01s8.51.73,12.32,2.19c3.81,1.46,6.89,3.56,9.25,6.29,2.36,2.73,3.54,6.02,3.54,9.86v.74h-16.13v-.64c0-1.41-.45-2.56-1.35-3.44s-2.03-1.54-3.41-1.98c-1.37-.44-2.8-.66-4.28-.66-1.34,0-2.72.15-4.15.45-1.43.3-2.64.79-3.62,1.48-.99.69-1.48,1.65-1.48,2.88s.53,2.18,1.59,2.93c1.06.76,2.54,1.38,4.44,1.85s4.11.92,6.61,1.35c2.36.39,4.86.93,7.48,1.61s5.09,1.66,7.4,2.91c2.31,1.25,4.18,2.89,5.61,4.92,1.43,2.03,2.14,4.59,2.14,7.69s-.74,5.96-2.22,8.25c-1.48,2.29-3.48,4.15-6,5.58-2.52,1.43-5.32,2.49-8.41,3.17-3.08.69-6.25,1.03-9.49,1.03Z"/>
  <path class="cls-2" d="M557.78,576.39c-6.17,0-11.58-1.24-16.23-3.73-4.66-2.49-8.26-5.95-10.82-10.39-2.56-4.44-3.83-9.57-3.83-15.39s1.28-10.99,3.83-15.31c2.56-4.32,6.16-7.68,10.82-10.07,4.65-2.4,10.06-3.59,16.23-3.59,4.62,0,8.71.68,12.27,2.03,3.56,1.36,6.54,3.15,8.94,5.37,2.4,2.22,4.21,4.65,5.45,7.3,1.23,2.64,1.85,5.27,1.85,7.88v.42h-16.24c0-.21,0-.41-.03-.61s-.06-.4-.13-.61c-.28-1.48-.9-2.87-1.85-4.18-.95-1.3-2.28-2.37-3.99-3.2-1.71-.83-3.83-1.24-6.37-1.24-2.72,0-5.14.6-7.27,1.8-2.13,1.2-3.82,2.97-5.05,5.32s-1.85,5.24-1.85,8.7.62,6.3,1.85,8.75,2.92,4.33,5.05,5.63c2.13,1.31,4.55,1.96,7.27,1.96s5.06-.43,6.82-1.3c1.76-.86,3.08-2.03,3.97-3.49.88-1.46,1.41-3.08,1.59-4.84h16.24c0,2.61-.61,5.26-1.83,7.96-1.22,2.7-3.01,5.16-5.39,7.38s-5.35,4.02-8.91,5.39c-3.56,1.37-7.68,2.06-12.37,2.06Z"/>
  <path class="cls-2" d="M622.66,547.1c-6.06,0-11.4-1.25-16.02-3.75-4.62-2.5-8.22-5.95-10.81-10.34-2.59-4.39-3.89-9.46-3.89-15.2s1.29-10.76,3.89-15.15c2.59-4.39,6.19-7.81,10.81-10.26,4.62-2.45,9.96-3.67,16.02-3.67s11.4,1.23,16.02,3.67c4.62,2.45,8.22,5.87,10.81,10.26,2.59,4.39,3.89,9.44,3.89,15.15s-1.29,10.81-3.89,15.2c-2.59,4.39-6.2,7.84-10.81,10.34-4.62,2.5-9.96,3.75-16.02,3.75ZM622.66,534.09c2.86,0,5.34-.67,7.46-2.01s3.75-3.24,4.92-5.69c1.16-2.45,1.75-5.31,1.75-8.59s-.58-6.12-1.75-8.54c-1.16-2.41-2.8-4.28-4.92-5.58-2.11-1.3-4.6-1.96-7.46-1.96s-5.3.65-7.43,1.96c-2.13,1.3-3.78,3.17-4.94,5.58-1.16,2.41-1.75,5.26-1.75,8.54s.58,6.14,1.75,8.59c1.16,2.45,2.81,4.35,4.94,5.69s4.61,2.01,7.43,2.01Z"/>
  <path class="cls-2" d="M662.91,598.23v-79.27h16.44v79.27h-16.44ZM696.7,576.39c-4.44,0-8.51-1.19-12.22-3.57-3.7-2.38-6.66-5.59-8.88-9.62s-3.33-8.57-3.33-13.62v-.85l7.09-.16v.64c0,2.61.64,4.89,1.91,6.85,1.27,1.96,2.91,3.46,4.92,4.52,2.01,1.06,4.11,1.59,6.29,1.59,3.6,0,6.73-1.24,9.39-3.73,2.66-2.49,3.99-6.37,3.99-11.66s-1.32-9.14-3.97-11.55c-2.64-2.41-5.78-3.62-9.41-3.62-2.18,0-4.28.52-6.29,1.56-2.01,1.04-3.65,2.51-4.92,4.42-1.27,1.9-1.91,4.18-1.91,6.82l-7.09-.42c0-5.08,1.11-9.56,3.33-13.46,2.22-3.89,5.18-6.97,8.88-9.23,3.7-2.25,7.77-3.38,12.22-3.38s8.79,1.12,12.74,3.36c3.95,2.24,7.15,5.51,9.6,9.81,2.45,4.3,3.67,9.54,3.67,15.71s-1.2,11.88-3.6,16.29c-2.4,4.4-5.57,7.73-9.52,9.97-3.95,2.24-8.25,3.36-12.9,3.36Z"/>
  <path class="cls-2" d="M739.21,551.96v-10.84h37.23l-1.59,2.75v-1.59c0-2.01-.48-3.94-1.43-5.79-.95-1.85-2.42-3.36-4.42-4.55-1.99-1.18-4.54-1.77-7.64-1.77s-5.77.66-8.01,1.98c-2.24,1.32-3.95,3.22-5.13,5.69-1.18,2.47-1.77,5.45-1.77,8.94s.57,6.67,1.72,9.23c1.14,2.56,2.85,4.52,5.13,5.9,2.27,1.37,5.1,2.06,8.49,2.06,2.19,0,4.07-.2,5.66-.61,1.59-.41,2.88-.92,3.89-1.56s1.77-1.34,2.3-2.11c.53-.77.84-1.53.95-2.27h16.18c-.21,2.36-1.02,4.68-2.43,6.95-1.41,2.27-3.37,4.32-5.87,6.13-2.5,1.82-5.54,3.25-9.12,4.31-3.58,1.06-7.66,1.59-12.24,1.59-6.2,0-11.62-1.24-16.23-3.73-4.62-2.49-8.2-5.92-10.74-10.31s-3.81-9.46-3.81-15.2,1.29-10.92,3.89-15.31c2.59-4.39,6.2-7.81,10.84-10.26s10-3.67,16.1-3.67,11.63,1.24,16.18,3.73c4.55,2.49,8.06,5.96,10.52,10.42,2.47,4.46,3.7,9.65,3.7,15.57,0,.88-.02,1.73-.05,2.54-.04.81-.09,1.41-.16,1.8h-52.14Z"/>
  <path class="cls-1" d="M597.44,500.21s3.49-6.5,12.69-9.39c.89,1.28,2.99,3.94,6.71,5.65,2.86,1.31,5.45,1.5,6.94,1.49-2.18,1.08-4.98,2.74-7.84,5.24-2.62,2.29-4.52,4.61-5.85,6.49,0,0-8.15-3.06-12.64-9.48Z"/>
  <path class="cls-1" d="M647.94,500.21s-3.49-6.5-12.69-9.39c-.89,1.28-2.99,3.94-6.71,5.65-2.86,1.31-5.45,1.5-6.94,1.49,2.18,1.08,4.98,2.74,7.84,5.24,2.62,2.29,4.52,4.61,5.85,6.49,0,0,8.15-3.06,12.64-9.48Z"/>
  <path class="cls-2" d="M623.78,585.11c-6.06,0-11.4-1.25-16.02-3.75-4.62-2.5-8.22-5.95-10.81-10.34-2.59-4.39-3.89-9.46-3.89-15.2s1.29-10.76,3.89-15.15c2.59-4.39,6.19-7.81,10.81-10.26,4.62-2.45,9.96-3.67,16.02-3.67s11.4,1.23,16.02,3.67c4.62,2.45,8.22,5.87,10.81,10.26,2.59,4.39,3.89,9.44,3.89,15.15s-1.29,10.81-3.89,15.2c-2.59,4.39-6.2,7.84-10.81,10.34-4.62,2.5-9.96,3.75-16.02,3.75ZM623.78,572.1c2.86,0,5.34-.67,7.46-2.01s3.75-3.24,4.92-5.69c1.16-2.45,1.75-5.31,1.75-8.59s-.58-6.12-1.75-8.54c-1.16-2.41-2.8-4.28-4.92-5.58s-4.6-1.96-7.46-1.96-5.3.65-7.43,1.96c-2.13,1.3-3.78,3.17-4.94,5.58-1.16,2.41-1.75,5.26-1.75,8.54s.58,6.14,1.75,8.59c1.16,2.45,2.81,4.35,4.94,5.69,2.13,1.34,4.61,2.01,7.43,2.01Z"/>
  <path class="cls-1" d="M647.32,536.18c-1.02,1.41-2.56,3.21-4.77,4.91-2.93,2.27-5.81,3.4-7.74,3.99-1.79-1.19-4.28-2.58-7.44-3.64-2.64-.89-5.03-1.3-6.94-1.49,2.18-1.08,4.98-2.74,7.84-5.24,2.62-2.29,4.52-4.61,5.85-6.49,1.49.68,3.04,1.45,4.64,2.33,3.3,1.82,6.14,3.76,8.55,5.62Z"/>
  <path class="cls-1" d="M599.08,537.56c1.1,1.28,2.63,2.79,4.65,4.22,3.26,2.29,6.42,3.37,8.58,3.91,1.23-1.09,3.24-2.61,6.06-3.74,2.81-1.13,5.3-1.43,6.94-1.49-2.18-1.08-4.98-2.74-7.84-5.24-2.62-2.29-4.52-4.61-5.85-6.49-1.43.59-3,1.35-4.64,2.33-3.5,2.11-6.08,4.51-7.89,6.51Z"/>
  <g>
    <circle class="cls-3" cx="797.27" cy="524.67" r="5.71"/>
    <g>
      <path class="cls-2" d="M796.84,524.01h-2.14v-.45h2.14v.45ZM796.02,525.78h-.5v-2.21h.5v2.21Z"/>
      <path class="cls-2" d="M797.52,525.78h-.5v-2.21h.67l.52,1.09.21.52h.04l.2-.52.5-1.09h.67v2.21h-.5v-1.12l.02-.35h-.04l-.13.35-.46.99h-.6l-.46-.99-.13-.35h-.04l.02.35v1.12Z"/>
    </g>
  </g>
</svg>